# xmcd CD database file
#
# Track frame offsets:
#	150
#	33031
#	51244
#	78573
#	115151
#	134757
#	143269
#	167923
#	200320
#	223340
#
# Disc length: 3107 seconds
#
# Revision: 0
# Processed by: cddbd v1.5.2PL0 Copyright (c) Steve Scherf et al.
# Submitted via: CDex 1.51
#
DISCID=8e0c210a
DTITLE=TERRAS - TERRAS
DYEAR=2011
DGENRE=Jazz
TTITLE0=Joe In My Dream
TTITLE1=Cobweb And Kink
TTITLE2=New Frontier
TTITLE3=Can
TTITLE4=Sketch of Barcelona
TTITLE5=Improvisation For Guggenheim House
TTITLE6=Waterloo In Rain
TTITLE7=Exploration Of The Lost Sound
TTITLE8=Mr.PM
TTITLE9=Odyssey Of Joe
EXTD=YEAR: 2011
EXTT0=
EXTT1=
EXTT2=
EXTT3=
EXTT4=
EXTT5=
EXTT6=
EXTT7=
EXTT8=
EXTT9=
PLAYORDER=
